<svg width="800" height="600" version="1.1" xmlns="http://www.w3.org/2000/svg"><circle cx="57" cy="555" r="1" fill="white" opacity="0.5" /><circle cx="72" cy="469" r="3" fill="white" opacity="0.9" /><circle cx="400" cy="18" r="2" fill="white" opacity="0.9" /><circle cx="207" cy="555" r="3" fill="white" opacity="0.8" /><circle cx="727" cy="435" r="3" fill="white" opacity="0.9" /><circle cx="468" cy="53" r="1" fill="white" opacity="1.0" /><circle cx="296" cy="338" r="3" fill="white" opacity="0.5" /><circle cx="628" cy="543" r="1" fill="white" opacity="0.6" /><circle cx="490" cy="318" r="1" fill="white" opacity="0.5" /><circle cx="55" cy="170" r="1" fill="white" opacity="0.8" /><circle cx="99" cy="582" r="3" fill="white" opacity="0.8" /><circle cx="287" cy="115" r="3" fill="white" opacity="1.0" /><circle cx="796" cy="159" r="1" fill="white" opacity="0.7" /><circle cx="649" cy="337" r="2" fill="white" opacity="0.6" /><circle cx="307" cy="217" r="2" fill="white" opacity="0.6" /><circle cx="768" cy="497" r="2" fill="white" opacity="0.7" /><circle cx="499" cy="288" r="3" fill="white" opacity="0.9" /><circle cx="586" cy="222" r="2" fill="white" opacity="0.8" /><circle cx="376" cy="466" r="2" fill="white" opacity="0.6" /><circle cx="254" cy="302" r="2" fill="white" opacity="0.7" /><circle cx="199" cy="182" r="3" fill="white" opacity="0.5" /><circle cx="111" cy="566" r="1" fill="white" opacity="0.8" /><circle cx="758" cy="550" r="1" fill="white" opacity="0.9" /><circle cx="780" cy="558" r="2" fill="white" opacity="0.9" /><circle cx="200" cy="568" r="2" fill="white" opacity="1.0" /><circle cx="288" cy="476" r="2" fill="white" opacity="0.8" /><circle cx="18" cy="70" r="3" fill="white" opacity="0.5" /><circle cx="326" cy="72" r="2" fill="white" opacity="0.9" /><circle cx="374" cy="418" r="1" fill="white" opacity="0.6" /><circle cx="490" cy="325" r="1" fill="white" opacity="0.7" /><circle cx="95" cy="29" r="1" fill="white" opacity="0.8" /><circle cx="551" cy="553" r="2" fill="white" opacity="0.5" /><circle cx="307" cy="5" r="3" fill="white" opacity="1.0" /><circle cx="599" cy="489" r="3" fill="white" opacity="1.0" /><circle cx="618" cy="35" r="2" fill="white" opacity="0.9" /><circle cx="439" cy="268" r="1" fill="white" opacity="0.8" /><circle cx="788" cy="210" r="3" fill="white" opacity="0.6" /><circle cx="706" cy="423" r="1" fill="white" opacity="0.7" /><circle cx="284" cy="184" r="1" fill="white" opacity="0.8" /><circle cx="20" cy="109" r="3" fill="white" opacity="0.9" /><circle cx="538" cy="60" r="3" fill="white" opacity="0.9" /><circle cx="275" cy="262" r="1" fill="white" opacity="0.7" /><circle cx="360" cy="541" r="3" fill="white" opacity="0.6" /><circle cx="153" cy="199" r="3" fill="white" opacity="0.9" /><circle cx="603" cy="527" r="2" fill="white" opacity="0.8" /><circle cx="58" cy="17" r="3" fill="white" opacity="0.8" /><circle cx="722" cy="313" r="1" fill="white" opacity="0.9" /><circle cx="349" cy="593" r="3" fill="white" opacity="0.5" /><circle cx="593" cy="87" r="3" fill="white" opacity="1.0" /><circle cx="161" cy="499" r="1" fill="white" opacity="0.8" /><circle cx="153" cy="29" r="3" fill="white" opacity="0.9" /><circle cx="62" cy="20" r="3" fill="white" opacity="0.8" /><circle cx="475" cy="131" r="2" fill="white" opacity="0.8" /><circle cx="609" cy="34" r="3" fill="white" opacity="1.0" /><circle cx="410" cy="537" r="2" fill="white" opacity="0.9" /><circle cx="604" cy="474" r="3" fill="white" opacity="0.6" /><circle cx="796" cy="404" r="2" fill="white" opacity="1.0" /><circle cx="631" cy="319" r="3" fill="white" opacity="0.8" /><circle cx="67" cy="207" r="3" fill="white" opacity="0.6" /><circle cx="719" cy="190" r="1" fill="white" opacity="0.6" /><circle cx="555" cy="180" r="2" fill="white" opacity="0.9" /><circle cx="402" cy="196" r="1" fill="white" opacity="0.6" /><circle cx="651" cy="499" r="3" fill="white" opacity="1.0" /><circle cx="416" cy="221" r="3" fill="white" opacity="0.7" /><circle cx="357" cy="36" r="1" fill="white" opacity="0.5" /><circle cx="591" cy="583" r="1" fill="white" opacity="0.5" /><circle cx="667" cy="279" r="3" fill="white" opacity="0.5" /><circle cx="184" cy="597" r="2" fill="white" opacity="0.7" /><circle cx="146" cy="391" r="2" fill="white" opacity="0.5" /><circle cx="326" cy="148" r="2" fill="white" opacity="0.8" /><circle cx="244" cy="547" r="1" fill="white" opacity="0.8" /><circle cx="375" cy="476" r="2" fill="white" opacity="0.5" /><circle cx="800" cy="461" r="1" fill="white" opacity="0.6" /><circle cx="439" cy="396" r="1" fill="white" opacity="0.7" /><circle cx="325" cy="140" r="2" fill="white" opacity="0.8" /><circle cx="373" cy="408" r="2" fill="white" opacity="0.6" /><circle cx="309" cy="103" r="1" fill="white" opacity="0.6" /><circle cx="415" cy="213" r="1" fill="white" opacity="0.5" /><circle cx="714" cy="176" r="3" fill="white" opacity="0.8" /><circle cx="566" cy="6" r="1" fill="white" opacity="0.6" /><circle cx="335" cy="448" r="2" fill="white" opacity="0.6" /><circle cx="331" cy="97" r="1" fill="white" opacity="0.9" /><circle cx="329" cy="49" r="1" fill="white" opacity="0.7" /><circle cx="130" cy="230" r="3" fill="white" opacity="0.8" /><circle cx="253" cy="22" r="3" fill="white" opacity="1.0" /><circle cx="424" cy="50" r="3" fill="white" opacity="0.5" /><circle cx="381" cy="74" r="3" fill="white" opacity="0.9" /><circle cx="196" cy="381" r="1" fill="white" opacity="0.9" /><circle cx="372" cy="322" r="1" fill="white" opacity="0.7" /><circle cx="91" cy="200" r="2" fill="white" opacity="0.5" /><circle cx="670" cy="173" r="3" fill="white" opacity="0.5" /><circle cx="312" cy="274" r="1" fill="white" opacity="0.8" /><circle cx="753" cy="473" r="3" fill="white" opacity="0.7" /><circle cx="555" cy="166" r="1" fill="white" opacity="0.8" /><circle cx="148" cy="442" r="2" fill="white" opacity="1.0" /><circle cx="800" cy="100" r="1" fill="white" opacity="0.6" /><circle cx="36" cy="545" r="2" fill="white" opacity="0.8" /><circle cx="534" cy="216" r="2" fill="white" opacity="0.9" /><circle cx="112" cy="150" r="1" fill="white" opacity="0.8" /><circle cx="417" cy="549" r="2" fill="white" opacity="1.0" /></svg>